<svg xmlns="http://www.w3.org/2000/svg" xmlns:xlink="http://www.w3.org/1999/xlink" width="20" height="20" viewBox="0 0 20 20"><defs><path id="kmjna" d="M478.65 10656.65h18.7v18.7h-18.7zm5.1 8.5h8.5v-6.8h-8.5zm0 8.5h8.5v-6.8h-8.5zm10.2-13.6h1.7v-1.7h-1.7zm0 2.55h1.7v-1.7h-1.7zm0 2.55h1.7v-1.7h-1.7zm0 3.4h1.7v-1.7h-1.7zm0 2.55h1.7v-1.7h-1.7zm0 2.55h1.7v-1.7h-1.7zm-13.6-13.6h1.7v-1.7h-1.7zm0 2.55h1.7v-1.7h-1.7zm0 2.55h1.7v-1.7h-1.7zm0 3.4h1.7v-1.7h-1.7zm0 2.55h1.7v-1.7h-1.7zm0 2.55h1.7v-1.7h-1.7z"/></defs><g><g clip-path="url(#clip-1239)" transform="translate(-478 -10656)"><use fill="#fff" xlink:href="#kmjna"/></g></g></svg>